<svg width="112" height="80" viewBox="0 0 112 80" fill="none" xmlns="http://www.w3.org/2000/svg">
<path fill-rule="evenodd" clip-rule="evenodd" d="M54.2487 37.3871C53.0025 36.9739 51.8552 36.3514 50.8375 35.4916C49.8094 34.624 49.0407 33.6139 48.5042 32.5115C45.1083 25.5208 51.1108 14.7941 60.7068 13.0372C63.5175 7.20925 59.3605 2.61467 52.493 4.36908C48.6556 5.3496 43.5041 7.31704 39.1829 14.1447C38.0227 16.2752 37.1397 18.5738 36.6007 20.9904C35.1697 27.4305 36.4723 33.4407 39.7193 37.8723C40.6536 39.1454 41.7497 40.2915 42.9882 41.2758C45.7757 43.4961 49.2794 44.9156 53.2926 45.2236C65.2847 46.1412 77.2511 36.7839 80.0258 24.3183C80.1708 23.6535 80.2915 22.9951 80.3813 22.3431C76.671 32.5846 63.0952 40.3248 54.2487 37.3871Z" fill="#4C6ED7"/>
<path opacity="0.25" fill-rule="evenodd" clip-rule="evenodd" d="M54.2487 37.3871C54.173 37.3615 54.0986 37.3371 54.0228 37.3089C52.4841 38.0327 50.9427 38.6821 49.4334 39.2545C65.1473 45.2351 77.4475 33.329 80.38 22.3444C76.671 32.5846 63.0952 40.3248 54.2487 37.3871Z" fill="#B6FFFF"/>
<path opacity="0.25" fill-rule="evenodd" clip-rule="evenodd" d="M54.2487 37.3871C53.1578 37.0265 52.1401 36.5029 51.2238 35.8008C50.2586 36.3527 49.2665 36.8866 48.2437 37.4077C46.2185 38.4357 44.0855 39.4008 41.8562 40.2979C42.2168 40.6393 42.5954 40.9678 42.9869 41.2784C43.4053 41.6121 43.839 41.9278 44.2882 42.223C46.8281 41.8444 49.2345 41.3734 51.5125 40.8112C54.1615 40.1593 57.112 39.1864 60.1254 37.921C58.0514 38.1418 56.0519 37.9865 54.2487 37.3871Z" fill="#01052D"/>
<path opacity="0.25" fill-rule="evenodd" clip-rule="evenodd" d="M52.4918 4.36909C48.6544 5.3496 43.5028 7.31704 39.1816 14.1447C43.6235 10.0545 53.8676 8.49778 53.1437 16.7462C55.2267 14.9238 57.8012 13.5672 60.7055 13.0359C63.5162 7.20924 59.3605 2.61468 52.4918 4.36909Z" fill="#01052D"/>
<path opacity="0.15" fill-rule="evenodd" clip-rule="evenodd" d="M52.4918 4.36908C48.6544 5.3496 43.5028 7.31704 39.1816 14.1447C45.2983 7.06549 59.2501 2.59927 58.3299 13.6763C59.0948 13.4029 59.8867 13.1873 60.7068 13.0372C63.5162 7.20925 59.3605 2.61467 52.4918 4.36908Z" fill="#01052D"/>
<path fill-rule="evenodd" clip-rule="evenodd" d="M39.1816 14.1447C47.7368 2.66469 62.1571 1.73167 60.6183 15.2331C59.9137 21.3921 55.4474 27.3856 48.5029 32.5115C45.8989 34.4314 42.9484 36.2308 39.7168 37.8735C35.2826 40.1272 30.3171 42.0818 25 43.6437C31.725 43.4101 37.6993 42.5785 42.9856 41.2771C56.161 38.0365 76.7275 26.9235 75.5262 10.8233C74.2749 -5.97259 47.9524 -1.94272 39.1816 14.1447Z" fill="#4C6ED7"/>
<path opacity="0.3" fill-rule="evenodd" clip-rule="evenodd" d="M57.959 6.08368C55.2498 4.27922 51.6447 4.76306 48.7776 5.89758C46.8923 6.64452 42.4889 9.08811 39.1816 14.1447C47.7368 2.66469 62.1571 1.73167 60.6183 15.233C59.9137 21.3921 55.4474 27.3856 48.5029 32.5115C45.8989 34.4314 42.9484 36.2308 39.7168 37.8735C35.2826 40.1272 30.3171 42.0818 25 43.6437C31.0204 42.1549 36.2144 40.1413 39.9144 38.2598C42.992 36.6979 45.9811 34.914 48.7609 32.8606C54.413 28.6895 60.2165 22.5882 61.0482 15.2844C61.2638 13.3991 61.2215 11.3739 60.5849 9.57197C60.0818 8.1474 59.2245 6.92816 57.959 6.08368Z" fill="#B6FFFF"/>
<path opacity="0.25" fill-rule="evenodd" clip-rule="evenodd" d="M39.1816 14.1447C47.2298 3.34363 60.4732 1.87928 60.726 12.9948L60.7286 12.9922C66.7645 12.2273 74.538 14.173 73.1186 21.3549C74.8781 18.149 75.8111 14.6247 75.5275 10.8246C74.2749 -5.97256 47.9524 -1.9427 39.1816 14.1447Z" fill="#114FEE"/>
<path opacity="0.25" fill-rule="evenodd" clip-rule="evenodd" d="M41.6111 10.5127C47.2439 5.14295 54.0896 1.96012 59.5838 1.84461C70.9586 1.60847 71.3025 13.7533 65.1332 22.705C57.9988 33.0569 41.3351 39.8282 27.7516 42.7902C26.8468 43.0854 25.9292 43.3716 25.0013 43.6424C31.7263 43.4089 37.7006 42.5772 42.9869 41.2758C56.1623 38.0352 76.7288 26.9223 75.5275 10.822C74.375 -4.62756 52.013 -2.4535 41.6111 10.5127Z" fill="#B6FFFF"/>
<path d="M9 65.872C9.304 65.872 9.456 66.432 9.456 67.552C9.456 67.888 9.416 68.288 9.336 68.752C9.272 69.2 9.144 69.424 8.952 69.424H5.904V71.824H10.32C10.592 71.824 10.776 72.176 10.872 72.88C10.92 73.184 10.944 73.512 10.944 73.864C10.944 74.2 10.896 74.64 10.8 75.184C10.704 75.728 10.544 76 10.32 76H2.112C1.504 76 1.2 75.752 1.2 75.256V59.824C1.2 59.408 1.384 59.2 1.752 59.2H10.344C10.68 59.2 10.848 59.912 10.848 61.336C10.848 62.744 10.68 63.448 10.344 63.448H5.904V65.872H9ZM13.0359 74.896V60.496C13.0359 60.096 13.1319 59.784 13.3239 59.56C13.5319 59.32 13.7959 59.2 14.1159 59.2H18.1239C20.6679 59.2 22.5959 59.84 23.9079 61.12C25.2359 62.4 25.8999 64.416 25.8999 67.168C25.8999 73.056 23.3879 76 18.3639 76H14.2599C13.4439 76 13.0359 75.632 13.0359 74.896ZM17.6439 63.76V70.936C17.6439 71.272 17.6679 71.488 17.7159 71.584C17.7639 71.664 17.9079 71.704 18.1479 71.704C19.0279 71.704 19.6919 71.376 20.1399 70.72C20.6039 70.064 20.8359 68.976 20.8359 67.456C20.8359 65.92 20.5959 64.92 20.1159 64.456C19.6519 63.992 18.9079 63.76 17.8839 63.76H17.6439ZM35.673 59.68C35.673 59.36 36.537 59.2 38.265 59.2C40.009 59.2 40.881 59.36 40.881 59.68V70.696C40.881 72.328 40.297 73.664 39.129 74.704C37.961 75.728 36.345 76.24 34.281 76.24C32.233 76.24 30.561 75.712 29.265 74.656C27.985 73.584 27.345 72.144 27.345 70.336V59.704C27.345 59.384 28.209 59.224 29.937 59.224C31.681 59.224 32.553 59.384 32.553 59.704V70.528C32.553 70.848 32.721 71.104 33.057 71.296C33.409 71.488 33.777 71.584 34.161 71.584C34.545 71.584 34.889 71.496 35.193 71.32C35.513 71.144 35.673 70.88 35.673 70.528V59.68ZM43.5193 70.144C43.8233 70.384 44.3433 70.712 45.0793 71.128C45.8313 71.544 46.5433 71.752 47.2153 71.752C47.9033 71.752 48.2473 71.488 48.2473 70.96C48.2473 70.72 48.1513 70.512 47.9593 70.336C47.7673 70.144 47.4153 69.928 46.9033 69.688C46.3913 69.448 46.0073 69.264 45.7513 69.136C45.4953 68.992 45.1513 68.768 44.7193 68.464C44.3033 68.144 43.9833 67.816 43.7593 67.48C43.1193 66.568 42.7993 65.408 42.7993 64C42.7993 62.592 43.3193 61.408 44.3593 60.448C45.4153 59.472 46.7913 58.984 48.4873 58.984C49.6393 58.984 50.7033 59.112 51.6793 59.368C52.6553 59.608 53.1593 59.928 53.1913 60.328C53.1913 60.376 53.1913 60.424 53.1913 60.472C53.1913 61.032 53.0153 61.744 52.6633 62.608C52.3113 63.456 52.0633 63.928 51.9193 64.024C50.8953 63.496 49.9753 63.232 49.1593 63.232C48.3593 63.232 47.9593 63.52 47.9593 64.096C47.9593 64.448 48.2553 64.76 48.8473 65.032C48.9753 65.096 49.1593 65.184 49.3993 65.296C49.6393 65.408 49.9113 65.544 50.2153 65.704C50.5353 65.848 50.8713 66.04 51.2233 66.28C51.5913 66.504 51.9833 66.808 52.3993 67.192C53.2473 67.992 53.6713 69.048 53.6713 70.36C53.6713 72.072 53.1993 73.472 52.2553 74.56C51.3113 75.648 49.8553 76.208 47.8873 76.24C46.9273 76.24 46.0553 76.16 45.2713 76C44.5033 75.84 43.8313 75.528 43.2553 75.064C42.6793 74.6 42.3913 74.04 42.3913 73.384C42.3913 72.728 42.5113 72.08 42.7513 71.44C42.9913 70.784 43.2473 70.352 43.5193 70.144ZM68.7013 75.592C68.7013 75.864 67.8933 76 66.2773 76C64.6613 76 63.8533 75.864 63.8533 75.592V70.072H60.4933V75.592C60.4933 75.864 59.6853 76 58.0693 76C56.4533 76 55.6453 75.864 55.6453 75.592V59.68C55.6453 59.344 56.4533 59.176 58.0693 59.176C59.6853 59.176 60.4933 59.344 60.4933 59.68V65.32H63.8533V59.728C63.8533 59.504 64.2533 59.344 65.0533 59.248C65.4693 59.216 65.8773 59.2 66.2773 59.2L67.5013 59.248C68.3013 59.344 68.7013 59.504 68.7013 59.728V75.592ZM82.3706 76.048C80.9786 76.048 80.2266 75.824 80.1146 75.376L79.3226 72.28H75.5066L74.8106 75.256C74.7146 75.752 73.9466 76 72.5066 76C71.7386 76 71.1706 75.96 70.8026 75.88C70.4346 75.784 70.2506 75.712 70.2506 75.664L74.4986 59.416C74.4986 59.288 75.5946 59.224 77.7866 59.224C79.9786 59.224 81.0746 59.288 81.0746 59.416L85.2266 75.688C85.2266 75.8 84.8586 75.888 84.1226 75.952C83.3866 76.016 82.8026 76.048 82.3706 76.048ZM76.1066 69.232H78.6266L77.5466 64.264H77.4026L76.1066 69.232ZM91.4012 75.664C91.4012 75.92 90.6412 76.048 89.1212 76.048C87.5852 76.048 86.8172 75.928 86.8172 75.688V60.04C86.8172 59.48 87.1132 59.2 87.7052 59.2H92.2892C96.4972 59.2 98.6012 60.84 98.6012 64.12C98.6012 65.112 98.4092 66.016 98.0252 66.832C97.6412 67.632 97.0972 68.272 96.3932 68.752L99.4172 73.792C99.2892 74.176 98.8732 74.616 98.1692 75.112C97.2092 75.8 96.4172 76.144 95.7932 76.144C95.1692 76.144 94.7052 75.92 94.4012 75.472L92.1452 70.216H91.4012V75.664ZM91.4012 63.448V67.048H91.5212C93.0412 67.048 93.8012 66.416 93.8012 65.152C93.8012 64.576 93.6492 64.152 93.3452 63.88C93.0572 63.592 92.5772 63.448 91.9052 63.448H91.4012ZM108.773 65.872C109.077 65.872 109.229 66.432 109.229 67.552C109.229 67.888 109.189 68.288 109.109 68.752C109.045 69.2 108.917 69.424 108.725 69.424H105.677V71.824H110.093C110.365 71.824 110.549 72.176 110.645 72.88C110.693 73.184 110.717 73.512 110.717 73.864C110.717 74.2 110.669 74.64 110.573 75.184C110.477 75.728 110.317 76 110.093 76H101.885C101.277 76 100.973 75.752 100.973 75.256V59.824C100.973 59.408 101.157 59.2 101.525 59.2H110.117C110.453 59.2 110.621 59.912 110.621 61.336C110.621 62.744 110.453 63.448 110.117 63.448H105.677V65.872H108.773Z" fill="black"/>
</svg>
