<svg width="230" height="252" viewBox="0 0 230 252" fill="none" xmlns="http://www.w3.org/2000/svg">
<path d="M93.7504 31.9651H104.218" stroke="#263238" stroke-width="2" stroke-miterlimit="10"/>
<path d="M98.6597 30.0107L97.0212 34.8904C97.0212 34.8904 47.9466 40.0959 43.6927 32.936C39.4387 25.7761 46.6421 23.1828 63.6515 25.7824C80.6609 28.382 98.6597 30.0107 98.6597 30.0107Z" fill="#FDFDFD" stroke="#263238" stroke-miterlimit="10"/>
<path d="M136.069 31.9651H125.601" stroke="#263238" stroke-width="2" stroke-miterlimit="10"/>
<path d="M131.16 30.0107L132.798 34.8904C132.798 34.8904 181.873 40.0959 186.121 32.936C190.368 25.7761 183.209 23.1828 166.193 25.7824C149.178 28.382 131.16 30.0107 131.16 30.0107Z" fill="#FDFDFD" stroke="#263238" stroke-miterlimit="10"/>
<path d="M108.844 41.5242C108.844 41.5242 106.997 52.0291 110.319 53.0189C113.64 54.0086 121.562 53.7894 123.767 50.8577C125.973 47.9261 124.492 44.9945 122.047 40.5846C119.602 36.1746 113.18 35.9115 108.844 41.5242Z" fill="#FDFDFD" stroke="#263238" stroke-miterlimit="10"/>
<path d="M113.407 0.750885V33.6815H116.388V2.23549" fill="#FDFDFD"/>
<path d="M113.407 0.750885V33.6815H116.388V2.23549" stroke="#263238" stroke-miterlimit="10"/>
<path d="M105.976 35.6985C111.943 37.5777 118.349 37.5777 124.316 35.6985H129.011V31.4702C129.011 28.3381 122.803 25.8325 115.146 25.8325C107.489 25.8325 101.281 28.3381 101.281 31.4702V35.6985H105.976Z" fill="#FDFDFD" stroke="#263238" stroke-miterlimit="10"/>
<path d="M115.146 41.3362C122.803 41.3362 129.011 38.8121 129.011 35.6985C129.011 32.5849 122.803 30.0608 115.146 30.0608C107.489 30.0608 101.281 32.5849 101.281 35.6985C101.281 38.8121 107.489 41.3362 115.146 41.3362Z" fill="#FDFDFD" stroke="#263238" stroke-miterlimit="10"/>
<path d="M115.146 41.3362C122.803 41.3362 129.011 38.8121 129.011 35.6985C129.011 32.5849 122.803 30.0608 115.146 30.0608C107.489 30.0608 101.281 32.5849 101.281 35.6985C101.281 38.8121 107.489 41.3362 115.146 41.3362Z" fill="#FDFDFD" stroke="#263238" stroke-miterlimit="10"/>
<path d="M164.416 147.895H155.461V172.789H164.416V147.895Z" fill="white"/>
<path d="M162.179 149.938H157.704V164.734H162.179V149.938Z" fill="#CAC7C7"/>
<path d="M159.942 170.622C160.676 170.622 161.272 170.03 161.272 169.3C161.272 168.57 160.676 167.978 159.942 167.978C159.207 167.978 158.612 168.57 158.612 169.3C158.612 170.03 159.207 170.622 159.942 170.622Z" fill="#CAC7C7"/>
<path d="M177.203 147.895H168.248V172.789H177.203V147.895Z" fill="#CAC7C7"/>
<path d="M174.959 149.938H170.485V164.734H174.959V149.938Z" fill="white"/>
<path d="M172.729 170.622C173.463 170.622 174.059 170.03 174.059 169.3C174.059 168.57 173.463 167.978 172.729 167.978C171.994 167.978 171.399 168.57 171.399 169.3C171.399 170.03 171.994 170.622 172.729 170.622Z" fill="white"/>
<path d="M189.99 147.895H181.034V172.789H189.99V147.895Z" fill="#CAC7C7"/>
<path d="M187.746 149.938H183.272V164.734H187.746V149.938Z" fill="white"/>
<path d="M186.846 169.281C186.846 169.018 186.767 168.761 186.62 168.543C186.473 168.324 186.264 168.154 186.019 168.054C185.775 167.953 185.506 167.928 185.246 167.979C184.987 168.031 184.749 168.158 184.562 168.344C184.376 168.531 184.249 168.768 184.198 169.026C184.147 169.284 184.174 169.551 184.277 169.794C184.379 170.036 184.551 170.243 184.771 170.389C184.992 170.534 185.251 170.611 185.516 170.609C185.869 170.608 186.207 170.467 186.456 170.218C186.706 169.969 186.846 169.632 186.846 169.281Z" fill="white"/>
<path d="M202.777 147.895H193.822V172.789H202.777V147.895Z" fill="white"/>
<path d="M200.533 149.938H196.059V164.734H200.533V149.938Z" fill="#CAC7C7"/>
<path d="M199.633 169.281C199.633 169.019 199.554 168.762 199.407 168.544C199.261 168.325 199.052 168.155 198.808 168.054C198.564 167.954 198.295 167.928 198.036 167.979C197.776 168.03 197.538 168.157 197.351 168.342C197.165 168.528 197.037 168.765 196.986 169.022C196.934 169.28 196.961 169.547 197.062 169.789C197.163 170.032 197.334 170.24 197.554 170.385C197.774 170.531 198.032 170.609 198.296 170.609C198.651 170.609 198.991 170.469 199.241 170.22C199.492 169.971 199.633 169.633 199.633 169.281Z" fill="#CAC7C7"/>
<path d="M217.335 84.4586V82.6545H213.944V75.9456H211.285V82.6545H151.755V75.9456H149.095V82.6545H144.615V84.4586H149.095V112.597H144.615V114.401H149.095V142.546H144.615V144.35H149.095V172.489H144.615V174.293H149.095V205.1H151.755V174.293H211.285V205.1H213.944V174.293H217.335V172.489H213.944V144.35H217.335V142.546H213.944V114.401H217.335V112.597H213.944V84.4586H217.335ZM211.285 172.489H151.755V144.35H211.285V172.489ZM211.285 142.546H151.755V114.401H211.285V142.546ZM211.285 112.597H151.755V84.4586H211.285V112.597Z" fill="white"/>
<path d="M194.931 87.7034H185.975V112.597H194.931V87.7034Z" fill="#CAC7C7"/>
<path d="M192.687 89.7455H188.213V104.541H192.687V89.7455Z" fill="#CAC7C7"/>
<path d="M191.786 109.108C191.786 108.845 191.708 108.588 191.561 108.37C191.414 108.151 191.205 107.981 190.96 107.88C190.716 107.78 190.447 107.754 190.187 107.806C189.928 107.858 189.69 107.985 189.503 108.171C189.316 108.358 189.19 108.595 189.139 108.853C189.088 109.111 189.115 109.378 189.217 109.621C189.32 109.863 189.492 110.07 189.712 110.215C189.933 110.36 190.192 110.437 190.456 110.436C190.81 110.434 191.148 110.294 191.397 110.045C191.647 109.796 191.786 109.459 191.786 109.108Z" fill="#CAC7C7"/>
<path d="M184.425 87.7034H175.47V112.597H184.425V87.7034Z" fill="#CAC7C7"/>
<path d="M182.188 89.7455H177.713V104.541H182.188V89.7455Z" fill="#CAC7C7"/>
<path d="M179.951 110.43C180.685 110.43 181.281 109.838 181.281 109.108C181.281 108.378 180.685 107.786 179.951 107.786C179.216 107.786 178.621 108.378 178.621 109.108C178.621 109.838 179.216 110.43 179.951 110.43Z" fill="#CAC7C7"/>
<path d="M173.926 87.7034H164.97V112.597H173.926V87.7034Z" fill="white"/>
<path d="M171.682 89.7455H167.208V104.541H171.682V89.7455Z" fill="#CAC7C7"/>
<path d="M169.445 110.43C170.18 110.43 170.775 109.838 170.775 109.108C170.775 108.378 170.18 107.786 169.445 107.786C168.711 107.786 168.115 108.378 168.115 109.108C168.115 109.838 168.711 110.43 169.445 110.43Z" fill="#CAC7C7"/>
<path d="M207.27 87.7034H198.315V112.597H207.27V87.7034Z" fill="#CAC7C7"/>
<path d="M205.033 89.7455H200.558V104.541H205.033V89.7455Z" fill="#CAC7C7"/>
<path d="M202.796 110.43C203.531 110.43 204.126 109.838 204.126 109.108C204.126 108.378 203.531 107.786 202.796 107.786C202.062 107.786 201.466 108.378 201.466 109.108C201.466 109.838 202.062 110.43 202.796 110.43Z" fill="#CAC7C7"/>
<path d="M162.739 87.7034H153.784V112.597H162.739V87.7034Z" fill="white"/>
<path d="M160.496 89.7455H156.021V104.541H160.496V89.7455Z" fill="#CAC7C7"/>
<path d="M158.259 110.43C158.993 110.43 159.589 109.838 159.589 109.108C159.589 108.378 158.993 107.786 158.259 107.786C157.524 107.786 156.929 108.378 156.929 109.108C156.929 109.838 157.524 110.43 158.259 110.43Z" fill="#CAC7C7"/>
<path d="M198.832 74.9245H171.915C172.816 75.9688 173.294 77.3081 173.258 78.683C173.292 80.0575 172.814 81.3961 171.915 82.4415H198.832C199.835 82.4415 200.796 82.0455 201.506 81.3407C202.215 80.6358 202.613 79.6798 202.613 78.683C202.613 77.6862 202.215 76.7302 201.506 76.0254C200.796 75.3205 199.835 74.9245 198.832 74.9245Z" fill="#D4D4D4" stroke="#FFDEDE" stroke-miterlimit="10"/>
<path d="M199.891 75.0749V82.2097C200.666 81.9791 201.347 81.5071 201.833 80.8632C202.318 80.2193 202.583 79.4376 202.588 78.6329C202.579 77.8315 202.313 77.0539 201.827 76.4138C201.342 75.7737 200.663 75.3046 199.891 75.0749Z" fill="#9C9C9C" stroke="#FFDEDE" stroke-miterlimit="10"/>
<path d="M198.832 66.9879H171.915C172.814 68.0333 173.292 69.3719 173.258 70.7464C173.292 72.1208 172.814 73.4594 171.915 74.5048H198.832C199.835 74.5048 200.796 74.1089 201.506 73.404C202.215 72.6992 202.613 71.7432 202.613 70.7464C202.613 69.7495 202.215 68.7936 201.506 68.0887C200.796 67.3838 199.835 66.9879 198.832 66.9879Z" fill="#D4D4D4" stroke="#FFDEDE" stroke-miterlimit="10"/>
<path d="M199.891 67.1382V74.3044C200.667 74.0735 201.349 73.6005 201.835 72.9554C202.32 72.3103 202.585 71.5271 202.588 70.7213C202.585 69.9156 202.32 69.1324 201.835 68.4873C201.349 67.8421 200.667 67.3692 199.891 67.1382Z" fill="#9C9C9C" stroke="#FFDEDE" stroke-miterlimit="10"/>
<path d="M171.562 56.8024H162.607V81.6961H171.562V56.8024Z" fill="white"/>
<path d="M169.319 58.8445H164.844V73.6404H169.319V58.8445Z" fill="white"/>
<path d="M168.412 78.207C168.412 77.9455 168.334 77.69 168.188 77.4726C168.042 77.2553 167.834 77.0859 167.591 76.9858C167.348 76.8858 167.08 76.8596 166.822 76.9106C166.564 76.9616 166.327 77.0875 166.141 77.2724C165.955 77.4572 165.829 77.6927 165.778 77.9491C165.726 78.2055 165.753 78.4712 165.853 78.7128C165.954 78.9543 166.124 79.1607 166.343 79.3059C166.562 79.4512 166.819 79.5287 167.082 79.5287C167.257 79.5295 167.43 79.4959 167.592 79.4298C167.754 79.3636 167.901 79.2663 168.024 79.1434C168.148 79.0205 168.246 78.8745 168.312 78.7137C168.379 78.553 168.413 78.3808 168.412 78.207Z" fill="white"/>
<path d="M207.27 117.408H198.315V142.302H207.27V117.408Z" fill="white"/>
<path d="M205.033 119.456H200.558V134.252H205.033V119.456Z" fill="#CAC7C7"/>
<path d="M204.126 138.819C204.126 138.557 204.048 138.302 203.902 138.084C203.756 137.867 203.548 137.698 203.305 137.598C203.062 137.498 202.795 137.471 202.537 137.522C202.279 137.573 202.042 137.699 201.856 137.884C201.67 138.069 201.543 138.305 201.492 138.561C201.44 138.817 201.467 139.083 201.567 139.325C201.668 139.566 201.839 139.773 202.057 139.918C202.276 140.063 202.533 140.141 202.796 140.141C203.148 140.139 203.486 139.999 203.735 139.752C203.984 139.504 204.125 139.169 204.126 138.819Z" fill="#CAC7C7"/>
<path d="M196.891 117.408H187.935V142.302H196.891V117.408Z" fill="white"/>
<path d="M194.647 119.456H190.173V134.252H194.647V119.456Z" fill="#CAC7C7"/>
<path d="M193.74 138.819C193.74 138.557 193.662 138.302 193.516 138.084C193.37 137.867 193.162 137.698 192.919 137.598C192.676 137.498 192.409 137.471 192.151 137.522C191.893 137.573 191.656 137.699 191.47 137.884C191.284 138.069 191.157 138.305 191.106 138.561C191.054 138.817 191.081 139.083 191.181 139.325C191.282 139.566 191.453 139.773 191.671 139.918C191.89 140.063 192.147 140.141 192.41 140.141C192.585 140.141 192.758 140.106 192.919 140.04C193.081 139.973 193.227 139.876 193.351 139.753C193.474 139.631 193.572 139.485 193.639 139.325C193.706 139.164 193.74 138.992 193.74 138.819Z" fill="#CAC7C7"/>
<path d="M175.464 117.408H166.508V142.302H175.464V117.408Z" fill="white"/>
<path d="M173.22 119.456H168.745V134.252H173.22V119.456Z" fill="#CAC7C7"/>
<path d="M172.313 138.819C172.313 138.557 172.235 138.302 172.089 138.084C171.943 137.867 171.735 137.698 171.492 137.598C171.249 137.498 170.981 137.471 170.723 137.522C170.465 137.573 170.228 137.699 170.042 137.884C169.856 138.069 169.73 138.305 169.678 138.561C169.627 138.817 169.653 139.083 169.754 139.325C169.855 139.566 170.025 139.773 170.244 139.918C170.463 140.063 170.72 140.141 170.983 140.141C171.157 140.141 171.33 140.106 171.492 140.04C171.653 139.973 171.8 139.876 171.923 139.753C172.047 139.631 172.145 139.485 172.212 139.325C172.278 139.164 172.313 138.992 172.313 138.819Z" fill="#CAC7C7"/>
<path d="M186.505 117.408H177.55V142.302H186.505V117.408Z" fill="white"/>
<path d="M184.261 119.456H179.787V134.252H184.261V119.456Z" fill="#CAC7C7"/>
<path d="M183.354 138.819C183.354 138.557 183.276 138.302 183.13 138.084C182.984 137.867 182.776 137.698 182.533 137.598C182.29 137.498 182.023 137.471 181.765 137.522C181.507 137.573 181.27 137.699 181.084 137.884C180.898 138.069 180.771 138.305 180.72 138.561C180.668 138.817 180.695 139.083 180.795 139.325C180.896 139.566 181.067 139.773 181.285 139.918C181.504 140.063 181.761 140.141 182.024 140.141C182.199 140.141 182.372 140.106 182.533 140.04C182.695 139.973 182.841 139.876 182.965 139.753C183.088 139.631 183.186 139.485 183.253 139.325C183.32 139.164 183.354 138.992 183.354 138.819Z" fill="#CAC7C7"/>
<path d="M92.3701 147.895H83.4148V172.789H92.3701V147.895Z" fill="white"/>
<path d="M90.1266 149.938H85.6521V164.734H90.1266V149.938Z" fill="white"/>
<path d="M87.8897 170.622C88.6242 170.622 89.2197 170.03 89.2197 169.3C89.2197 168.57 88.6242 167.978 87.8897 167.978C87.1551 167.978 86.5597 168.57 86.5597 169.3C86.5597 170.03 87.1551 170.622 87.8897 170.622Z" fill="white"/>
<path d="M105.151 147.895H96.1957V172.789H105.151V147.895Z" fill="white"/>
<path d="M102.913 149.938H98.439V164.734H102.913V149.938Z" fill="white"/>
<path d="M100.677 170.622C101.411 170.622 102.007 170.03 102.007 169.3C102.007 168.57 101.411 167.978 100.677 167.978C99.9421 167.978 99.3467 168.57 99.3467 169.3C99.3467 170.03 99.9421 170.622 100.677 170.622Z" fill="white"/>
<path d="M117.938 147.895H108.983V172.789H117.938V147.895Z" fill="white"/>
<path d="M115.701 149.938H111.226V164.734H115.701V149.938Z" fill="white"/>
<path d="M113.464 170.622C114.198 170.622 114.794 170.03 114.794 169.3C114.794 168.57 114.198 167.978 113.464 167.978C112.729 167.978 112.134 168.57 112.134 169.3C112.134 170.03 112.729 170.622 113.464 170.622Z" fill="white"/>
<path d="M130.725 147.895H121.769V172.789H130.725V147.895Z" fill="white"/>
<path d="M128.481 149.938H124.007V164.734H128.481V149.938Z" fill="white"/>
<path d="M127.581 169.281C127.581 169.018 127.502 168.761 127.355 168.543C127.208 168.324 126.999 168.154 126.754 168.054C126.51 167.953 126.241 167.928 125.981 167.979C125.722 168.031 125.484 168.158 125.297 168.344C125.11 168.531 124.984 168.768 124.933 169.026C124.882 169.284 124.909 169.551 125.012 169.794C125.114 170.036 125.286 170.243 125.506 170.389C125.727 170.534 125.986 170.611 126.251 170.609C126.604 170.608 126.942 170.467 127.191 170.218C127.441 169.969 127.581 169.632 127.581 169.281Z" fill="white"/>
<path d="M79.7033 75.9456H77.0433V205.1H79.7033V75.9456Z" fill="white"/>
<path d="M141.893 75.9456H139.233V205.1H141.893V75.9456Z" fill="white"/>
<path d="M145.283 82.6545H72.5625V84.4586H145.283V82.6545Z" fill="white"/>
<path d="M145.283 112.597H72.5625V114.401H145.283V112.597Z" fill="white"/>
<path d="M145.283 142.546H72.5625V144.35H145.283V142.546Z" fill="white"/>
<path d="M145.283 172.489H72.5625V174.293H145.283V172.489Z" fill="white"/>
<path d="M122.879 87.7034H113.923V112.597H122.879V87.7034Z" fill="white"/>
<path d="M120.635 89.7455H116.161V104.541H120.635V89.7455Z" fill="white"/>
<path d="M119.734 109.108C119.734 108.845 119.656 108.588 119.509 108.37C119.362 108.151 119.153 107.981 118.908 107.88C118.664 107.78 118.395 107.754 118.135 107.806C117.876 107.858 117.638 107.985 117.451 108.171C117.264 108.358 117.138 108.595 117.087 108.853C117.036 109.111 117.063 109.378 117.165 109.621C117.268 109.863 117.44 110.07 117.66 110.215C117.881 110.36 118.14 110.437 118.404 110.436C118.758 110.434 119.096 110.294 119.345 110.045C119.595 109.796 119.734 109.459 119.734 109.108Z" fill="white"/>
<path d="M112.379 87.7034H103.424V112.597H112.379V87.7034Z" fill="white"/>
<path d="M110.136 89.7455H105.661V104.541H110.136V89.7455Z" fill="#CAC7C7"/>
<path d="M107.899 110.43C108.633 110.43 109.229 109.838 109.229 109.108C109.229 108.378 108.633 107.786 107.899 107.786C107.164 107.786 106.569 108.378 106.569 109.108C106.569 109.838 107.164 110.43 107.899 110.43Z" fill="#CAC7C7"/>
<path d="M101.874 87.7034H92.9185V112.597H101.874V87.7034Z" fill="white"/>
<path d="M99.6301 89.7455H95.1556V104.541H99.6301V89.7455Z" fill="#CAC7C7"/>
<path d="M97.393 110.43C98.1275 110.43 98.723 109.838 98.723 109.108C98.723 108.378 98.1275 107.786 97.393 107.786C96.6584 107.786 96.063 108.378 96.063 109.108C96.063 109.838 96.6584 110.43 97.393 110.43Z" fill="#CAC7C7"/>
<path d="M135.224 87.7034H126.269V112.597H135.224V87.7034Z" fill="white"/>
<path d="M132.981 89.7455H128.506V104.541H132.981V89.7455Z" fill="#CAC7C7"/>
<path d="M130.744 110.43C131.479 110.43 132.074 109.838 132.074 109.108C132.074 108.378 131.479 107.786 130.744 107.786C130.01 107.786 129.414 108.378 129.414 109.108C129.414 109.838 130.01 110.43 130.744 110.43Z" fill="white"/>
<path d="M90.6874 87.7034H81.7321V112.597H90.6874V87.7034Z" fill="white"/>
<path d="M88.4439 89.7455H83.9694V104.541H88.4439V89.7455Z" fill="#CAC7C7"/>
<path d="M86.2069 110.43C86.9415 110.43 87.5369 109.838 87.5369 109.108C87.5369 108.378 86.9415 107.786 86.2069 107.786C85.4724 107.786 84.877 108.378 84.877 109.108C84.877 109.838 85.4724 110.43 86.2069 110.43Z" fill="#CAC7C7"/>
<path d="M90.6874 57.6361H81.7321V82.5298H90.6874V57.6361Z" fill="white"/>
<path d="M88.4439 59.6776H83.9694V74.4735H88.4439V59.6776Z" fill="#CAC7C7"/>
<path d="M86.2069 80.3618C86.9415 80.3618 87.5369 79.7701 87.5369 79.0401C87.5369 78.3101 86.9415 77.7184 86.2069 77.7184C85.4724 77.7184 84.877 78.3101 84.877 79.0401C84.877 79.7701 85.4724 80.3618 86.2069 80.3618Z" fill="#CAC7C7"/>
<path d="M100.525 57.6361H91.5698V82.5298H100.525V57.6361Z" fill="white"/>
<path d="M98.2877 59.6776H93.8132V74.4735H98.2877V59.6776Z" fill="#CAC7C7"/>
<path d="M96.0507 80.3618C96.7852 80.3618 97.3807 79.7701 97.3807 79.0401C97.3807 78.3101 96.7852 77.7184 96.0507 77.7184C95.3162 77.7184 94.7207 78.3101 94.7207 79.0401C94.7207 79.7701 95.3162 80.3618 96.0507 80.3618Z" fill="#CAC7C7"/>
<path d="M125.935 83.0241V74.1228H100.891V83.0241H125.935Z" fill="white"/>
<path d="M123.881 80.7941V76.3465H109.001V80.7941H123.881Z" fill="#CAC7C7"/>
<path d="M104.433 79.892C104.696 79.892 104.953 79.8145 105.171 79.6692C105.39 79.524 105.561 79.3176 105.661 79.0761C105.762 78.8346 105.788 78.5688 105.737 78.3124C105.686 78.056 105.559 77.8205 105.373 77.6357C105.187 77.4508 104.95 77.3249 104.692 77.2739C104.434 77.2229 104.167 77.2491 103.924 77.3491C103.681 77.4492 103.473 77.6186 103.327 77.836C103.181 78.0533 103.103 78.3089 103.103 78.5703C103.104 78.9203 103.245 79.2555 103.494 79.5031C103.743 79.7506 104.08 79.8904 104.433 79.892Z" fill="#CAC7C7"/>
<path d="M135.224 117.408H126.269V142.302H135.224V117.408Z" fill="white"/>
<path d="M132.981 119.456H128.506V134.252H132.981V119.456Z" fill="white"/>
<path d="M132.074 138.819C132.074 138.557 131.996 138.302 131.85 138.084C131.704 137.867 131.496 137.698 131.253 137.598C131.01 137.498 130.743 137.471 130.485 137.522C130.227 137.573 129.99 137.699 129.804 137.884C129.618 138.069 129.491 138.305 129.44 138.561C129.388 138.817 129.415 139.083 129.515 139.325C129.616 139.566 129.786 139.773 130.005 139.918C130.224 140.063 130.481 140.141 130.744 140.141C130.919 140.141 131.092 140.106 131.253 140.04C131.414 139.973 131.561 139.876 131.685 139.753C131.808 139.631 131.906 139.485 131.973 139.325C132.04 139.164 132.074 138.992 132.074 138.819Z" fill="white"/>
<path d="M124.839 117.408H115.883V142.302H124.839V117.408Z" fill="white"/>
<path d="M122.595 119.456H118.121V134.252H122.595V119.456Z" fill="white"/>
<path d="M121.688 138.819C121.688 138.557 121.61 138.302 121.464 138.084C121.318 137.867 121.11 137.698 120.867 137.598C120.624 137.498 120.356 137.471 120.098 137.522C119.84 137.573 119.604 137.699 119.418 137.884C119.232 138.069 119.105 138.305 119.054 138.561C119.002 138.817 119.029 139.083 119.129 139.325C119.23 139.566 119.4 139.773 119.619 139.918C119.838 140.063 120.095 140.141 120.358 140.141C120.533 140.141 120.706 140.106 120.867 140.04C121.028 139.973 121.175 139.876 121.298 139.753C121.422 139.631 121.52 139.485 121.587 139.325C121.654 139.164 121.688 138.992 121.688 138.819Z" fill="white"/>
<path d="M103.411 117.408H94.4562V142.302H103.411V117.408Z" fill="white"/>
<path d="M101.168 119.456H96.6934V134.252H101.168V119.456Z" fill="white"/>
<path d="M100.261 138.819C100.261 138.557 100.183 138.302 100.037 138.084C99.8905 137.867 99.6828 137.698 99.4398 137.598C99.1968 137.498 98.9293 137.471 98.6713 137.522C98.4134 137.573 98.1764 137.699 97.9904 137.884C97.8044 138.069 97.6777 138.305 97.6264 138.561C97.5751 138.817 97.6014 139.083 97.7021 139.325C97.8027 139.566 97.9732 139.773 98.1919 139.918C98.4106 140.063 98.6678 140.141 98.9308 140.141C99.1055 140.141 99.2784 140.106 99.4398 140.04C99.6011 139.973 99.7478 139.876 99.8713 139.753C99.9948 139.631 100.093 139.485 100.16 139.325C100.226 139.164 100.261 138.992 100.261 138.819Z" fill="white"/>
<path d="M114.453 117.408H105.497V142.302H114.453V117.408Z" fill="white"/>
<path d="M112.209 119.456H107.735V134.252H112.209V119.456Z" fill="white"/>
<path d="M111.302 138.819C111.302 138.557 111.224 138.302 111.078 138.084C110.932 137.867 110.724 137.698 110.481 137.598C110.238 137.498 109.971 137.471 109.713 137.522C109.455 137.573 109.218 137.699 109.032 137.884C108.846 138.069 108.719 138.305 108.668 138.561C108.616 138.817 108.643 139.083 108.743 139.325C108.844 139.566 109.015 139.773 109.233 139.918C109.452 140.063 109.709 140.141 109.972 140.141C110.147 140.141 110.32 140.106 110.481 140.04C110.643 139.973 110.789 139.876 110.913 139.753C111.036 139.631 111.134 139.485 111.201 139.325C111.268 139.164 111.302 138.992 111.302 138.819Z" fill="white"/>
<path d="M19.8013 147.895H10.8459V172.789H19.8013V147.895Z" fill="white"/>
<path d="M17.5578 149.938H13.0833V164.734H17.5578V149.938Z" fill="#CAC7C7"/>
<path d="M15.3271 170.622C16.0616 170.622 16.657 170.03 16.657 169.3C16.657 168.57 16.0616 167.978 15.3271 167.978C14.5925 167.978 13.9971 168.57 13.9971 169.3C13.9971 170.03 14.5925 170.622 15.3271 170.622Z" fill="#CAC7C7"/>
<path d="M32.5882 147.895H23.6329V172.789H32.5882V147.895Z" fill="white"/>
<path d="M30.3446 149.938H25.8701V164.734H30.3446V149.938Z" fill="#CAC7C7"/>
<path d="M28.1139 170.622C28.8485 170.622 29.4439 170.03 29.4439 169.3C29.4439 168.57 28.8485 167.978 28.1139 167.978C27.3794 167.978 26.7839 168.57 26.7839 169.3C26.7839 170.03 27.3794 170.622 28.1139 170.622Z" fill="#CAC7C7"/>
<path d="M45.3752 147.895H36.4199V172.789H45.3752V147.895Z" fill="#CAC7C7"/>
<path d="M43.1317 149.938H38.6572V164.734H43.1317V149.938Z" fill="white"/>
<path d="M40.8947 170.622C41.6292 170.622 42.2247 170.03 42.2247 169.3C42.2247 168.57 41.6292 167.978 40.8947 167.978C40.1601 167.978 39.5647 168.57 39.5647 169.3C39.5647 170.03 40.1601 170.622 40.8947 170.622Z" fill="white"/>
<path d="M58.1622 147.895H49.2069V172.789H58.1622V147.895Z" fill="white"/>
<path d="M55.9187 149.938H51.4442V164.734H55.9187V149.938Z" fill="#CAC7C7"/>
<path d="M53.6816 170.622C54.4161 170.622 55.0115 170.03 55.0115 169.3C55.0115 168.57 54.4161 167.978 53.6816 167.978C52.947 167.978 52.3516 168.57 52.3516 169.3C52.3516 170.03 52.947 170.622 53.6816 170.622Z" fill="#CAC7C7"/>
<path d="M7.13447 75.9456H4.47449V205.1H7.13447V75.9456Z" fill="white"/>
<path d="M69.33 75.9456H66.67V205.1H69.33V75.9456Z" fill="white"/>
<path d="M72.7201 82.6545H0V84.4586H72.7201V82.6545Z" fill="white"/>
<path d="M72.7201 112.597H0V114.401H72.7201V112.597Z" fill="white"/>
<path d="M72.7201 142.546H0V144.35H72.7201V142.546Z" fill="white"/>
<path d="M72.7201 172.489H0V174.293H72.7201V172.489Z" fill="white"/>
<path d="M50.3161 87.7034H41.3608V112.597H50.3161V87.7034Z" fill="#CAC7C7"/>
<path d="M48.0725 89.7455H43.598V104.541H48.0725V89.7455Z" fill="white"/>
<path d="M47.1717 109.108C47.1717 108.845 47.0934 108.589 46.9465 108.37C46.7997 108.152 46.591 107.982 46.3468 107.881C46.1026 107.781 45.834 107.754 45.5747 107.805C45.3155 107.857 45.0774 107.983 44.8905 108.169C44.7037 108.355 44.5764 108.591 44.5248 108.849C44.4733 109.106 44.4997 109.374 44.6009 109.616C44.702 109.859 44.8733 110.066 45.093 110.212C45.3128 110.358 45.5711 110.436 45.8354 110.436C46.1898 110.436 46.5297 110.296 46.7803 110.047C47.0309 109.798 47.1717 109.46 47.1717 109.108Z" fill="white"/>
<path d="M39.8104 87.7034H30.8551V112.597H39.8104V87.7034Z" fill="white"/>
<path d="M37.5669 89.7455H33.0924V104.541H37.5669V89.7455Z" fill="#CAC7C7"/>
<path d="M35.3362 110.43C36.0707 110.43 36.6662 109.838 36.6662 109.108C36.6662 108.378 36.0707 107.786 35.3362 107.786C34.6017 107.786 34.0062 108.378 34.0062 109.108C34.0062 109.838 34.6017 110.43 35.3362 110.43Z" fill="#CAC7C7"/>
<path d="M29.3111 87.7034H20.3558V112.597H29.3111V87.7034Z" fill="white"/>
<path d="M27.0676 89.7455H22.5931V104.541H27.0676V89.7455Z" fill="#CAC7C7"/>
<path d="M24.8306 110.43C25.5651 110.43 26.1606 109.838 26.1606 109.108C26.1606 108.378 25.5651 107.786 24.8306 107.786C24.0961 107.786 23.5006 108.378 23.5006 109.108C23.5006 109.838 24.0961 110.43 24.8306 110.43Z" fill="#CAC7C7"/>
<path d="M62.6555 87.7034H53.7002V112.597H62.6555V87.7034Z" fill="white"/>
<path d="M60.412 89.7455H55.9375V104.541H60.412V89.7455Z" fill="#CAC7C7"/>
<path d="M58.1814 110.43C58.916 110.43 59.5114 109.838 59.5114 109.108C59.5114 108.378 58.916 107.786 58.1814 107.786C57.4469 107.786 56.8514 108.378 56.8514 109.108C56.8514 109.838 57.4469 110.43 58.1814 110.43Z" fill="#CAC7C7"/>
<path d="M37.2706 73.9536V82.8549H62.3152V73.9536H37.2706Z" fill="white"/>
<path d="M39.3315 76.1774V80.6249H54.2171V76.1774H39.3315Z" fill="#CAC7C7"/>
<path d="M58.8117 77.0794C58.5472 77.0782 58.2882 77.155 58.0676 77.3001C57.847 77.4453 57.6748 77.6523 57.5727 77.8948C57.4705 78.1374 57.4432 78.4046 57.494 78.6626C57.5449 78.9206 57.6717 79.1578 57.8583 79.3442C58.0449 79.5305 58.283 79.6576 58.5424 79.7094C58.8018 79.7611 59.0708 79.7352 59.3153 79.6349C59.5599 79.5346 59.7689 79.3644 59.9161 79.1458C60.0632 78.9273 60.1417 78.6703 60.1417 78.4074C60.1417 78.0563 60.0018 77.7194 59.7525 77.4706C59.5033 77.2217 59.165 77.081 58.8117 77.0794Z" fill="#CAC7C7"/>
<path d="M36.338 65.2088V74.1102H61.3826V65.2088H36.338Z" fill="white"/>
<path d="M38.3926 67.4326V71.8801H53.2782V67.4326H38.3926Z" fill="#CAC7C7"/>
<path d="M57.8726 68.3347C57.6095 68.3347 57.3524 68.4122 57.1337 68.5574C56.915 68.7027 56.7445 68.9091 56.6438 69.1506C56.5432 69.3921 56.5168 69.6579 56.5682 69.9143C56.6195 70.1707 56.7462 70.4062 56.9322 70.591C57.1182 70.7759 57.3551 70.9017 57.6131 70.9527C57.8711 71.0037 58.1385 70.9776 58.3816 70.8775C58.6246 70.7775 58.8323 70.6081 58.9784 70.3907C59.1246 70.1734 59.2026 69.9178 59.2026 69.6564C59.2034 69.4826 59.1696 69.3103 59.103 69.1496C59.0365 68.9889 58.9386 68.8428 58.8149 68.7199C58.6912 68.597 58.5443 68.4997 58.3825 68.4336C58.2208 68.3675 58.0475 68.3338 57.8726 68.3347Z" fill="#CAC7C7"/>
<path d="M18.1249 87.7034H9.16956V112.597H18.1249V87.7034Z" fill="white"/>
<path d="M15.8814 89.7455H11.4069V104.541H15.8814V89.7455Z" fill="#CAC7C7"/>
<path d="M13.6443 110.43C14.3789 110.43 14.9743 109.838 14.9743 109.108C14.9743 108.378 14.3789 107.786 13.6443 107.786C12.9098 107.786 12.3143 108.378 12.3143 109.108C12.3143 109.838 12.9098 110.43 13.6443 110.43Z" fill="#CAC7C7"/>
<path d="M62.6555 117.408H53.7002V142.302H62.6555V117.408Z" fill="white"/>
<path d="M60.412 119.456H55.9375V134.252H60.412V119.456Z" fill="#CAC7C7"/>
<path d="M59.5114 138.819C59.5127 138.556 59.4352 138.298 59.2889 138.079C59.1425 137.859 58.9339 137.688 58.6894 137.587C58.445 137.486 58.1758 137.459 57.916 137.51C57.6562 137.561 57.4175 137.687 57.2303 137.873C57.043 138.06 56.9156 138.297 56.8642 138.555C56.8129 138.813 56.8399 139.081 56.9418 139.324C57.0437 139.567 57.216 139.774 57.4367 139.919C57.6574 140.065 57.9166 140.142 58.1814 140.141C58.5337 140.139 58.871 139.999 59.1201 139.752C59.3691 139.504 59.5098 139.169 59.5114 138.819Z" fill="#CAC7C7"/>
<path d="M52.2698 117.408H43.3145V142.302H52.2698V117.408Z" fill="#CAC7C7"/>
<path d="M50.0326 119.456H45.5581V134.252H50.0326V119.456Z" fill="white"/>
<path d="M49.1256 138.819C49.1256 138.557 49.0475 138.302 48.9014 138.084C48.7553 137.867 48.5476 137.698 48.3045 137.598C48.0615 137.498 47.7941 137.471 47.5361 137.522C47.2781 137.573 47.0411 137.699 46.8551 137.884C46.6691 138.069 46.5425 138.305 46.4911 138.561C46.4398 138.817 46.4662 139.083 46.5668 139.325C46.6675 139.566 46.8379 139.773 47.0567 139.918C47.2754 140.063 47.5325 140.141 47.7956 140.141C48.1478 140.139 48.4851 139.999 48.7342 139.752C48.9832 139.504 49.1239 139.169 49.1256 138.819Z" fill="white"/>
<path d="M20.2486 117.408H11.2933V142.302H20.2486V117.408Z" fill="#CAC7C7"/>
<path d="M18.0115 119.456H13.537V134.252H18.0115V119.456Z" fill="white"/>
<path d="M17.1044 138.819C17.1044 138.557 17.0264 138.302 16.8803 138.084C16.7342 137.867 16.5264 137.698 16.2834 137.598C16.0404 137.498 15.773 137.471 15.515 137.522C15.257 137.573 15.02 137.699 14.834 137.884C14.648 138.069 14.5213 138.305 14.47 138.561C14.4187 138.817 14.445 139.083 14.5457 139.325C14.6464 139.566 14.8168 139.773 15.0355 139.918C15.2543 140.063 15.5114 140.141 15.7744 140.141C16.1267 140.139 16.464 139.999 16.7131 139.752C16.9621 139.504 17.1028 139.169 17.1044 138.819Z" fill="white"/>
<path d="M30.8425 117.408H21.8872V142.302H30.8425V117.408Z" fill="#CAC7C7"/>
<path d="M28.6054 119.456H24.1309V134.252H28.6054V119.456Z" fill="white"/>
<path d="M27.6983 138.819C27.6983 138.557 27.6203 138.302 27.4742 138.084C27.328 137.867 27.1203 137.698 26.8773 137.598C26.6343 137.498 26.3668 137.471 26.1089 137.522C25.8509 137.573 25.6139 137.699 25.4279 137.884C25.2419 138.069 25.1152 138.305 25.0639 138.561C25.0126 138.817 25.0389 139.083 25.1396 139.325C25.2402 139.566 25.4107 139.773 25.6294 139.918C25.8481 140.063 26.1053 140.141 26.3683 140.141C26.7205 140.139 27.0579 139.999 27.3069 139.752C27.556 139.504 27.6967 139.169 27.6983 138.819Z" fill="white"/>
<path d="M41.8839 117.408H32.9286V142.302H41.8839V117.408Z" fill="#CAC7C7"/>
<path d="M39.6467 119.456H35.1722V134.252H39.6467V119.456Z" fill="white"/>
<path d="M38.7396 138.819C38.7396 138.557 38.6616 138.302 38.5154 138.084C38.3693 137.867 38.1616 137.698 37.9185 137.598C37.6755 137.498 37.4081 137.471 37.1501 137.522C36.8921 137.573 36.6551 137.699 36.4691 137.884C36.2831 138.069 36.1565 138.305 36.1051 138.561C36.0538 138.817 36.0802 139.083 36.1808 139.325C36.2815 139.566 36.452 139.773 36.6707 139.918C36.8894 140.063 37.1465 140.141 37.4096 140.141C37.7618 140.139 38.0991 139.999 38.3482 139.752C38.5973 139.504 38.7379 139.169 38.7396 138.819Z" fill="white"/>
<path d="M35.0715 205.35H21.6417L19.625 183.219H37.0882L35.0715 205.35Z" fill="#4C6ED7" stroke="#263238" stroke-linecap="round" stroke-linejoin="round"/>
<path d="M37.0565 182.417H19.6501C19.1419 182.417 18.73 182.827 18.73 183.332V183.419C18.73 183.925 19.1419 184.334 19.6501 184.334H37.0565C37.5647 184.334 37.9766 183.925 37.9766 183.419V183.332C37.9766 182.827 37.5647 182.417 37.0565 182.417Z" fill="#FFDEDE" stroke="#263238" stroke-linecap="round" stroke-linejoin="round"/>
<path d="M20.476 151.522C20.7438 150.923 21.1472 150.394 21.6547 149.975" stroke="#263238" stroke-linecap="round" stroke-linejoin="round"/>
<path d="M25.1269 181.221C25.1269 181.221 29.0973 180.563 31.908 175.959C34.7187 171.355 30.7547 169.068 24.3014 163.625C20.2869 160.248 19.4109 156.421 19.8395 153.602" stroke="#263238" stroke-linecap="round" stroke-linejoin="round"/>
<path d="M33.5784 180.469C35.05 179.558 36.111 178.117 36.5404 176.447C37.3723 173.315 36.2127 169.707 31.5806 166.751C26.9486 163.794 24.4655 162.992 22.3165 160.173" stroke="#263238" stroke-linecap="round" stroke-linejoin="round"/>
<path d="M30.2566 181.71C30.9878 181.597 31.7002 181.386 32.3745 181.083" stroke="#263238" stroke-linecap="round" stroke-linejoin="round"/>
<path d="M88.3242 146.142C85.3244 142.815 84.1018 139.113 85.0093 134.033C86.5848 125.263 96.2649 115.51 96.2649 109.377C96.2649 103.245 100.582 88.9625 113.772 88.1168C126.962 87.2712 133.655 93.861 136.46 108.294C139.264 122.726 139.126 125.251 142.39 131.985C143.732 134.76 145.251 137.56 145.806 140.623C146.909 146.699 140.273 149.668 135.577 151.341C122.393 156.026 105.895 159.121 93.4793 150.633C91.5868 149.346 89.8561 147.838 88.3242 146.142Z" fill="#263238" stroke="#263238" stroke-linecap="round" stroke-linejoin="round"/>
<path d="M136.094 119.45C136.813 119.781 137.565 120.035 138.338 120.209" stroke="#FFDEDE" stroke-miterlimit="10" stroke-linecap="round"/>
<path d="M118.007 99.5301C118.007 99.5301 123.206 111.745 129.351 115.742C130.731 116.637 131.941 117.352 132.987 117.928" stroke="#FFDEDE" stroke-miterlimit="10" stroke-linecap="round"/>
<path d="M109.984 103.295C106.997 108.425 101.306 116.556 93.6556 119.97" stroke="#FFDEDE" stroke-miterlimit="10" stroke-linecap="round"/>
<path d="M112.329 98.8223C112.329 98.8223 111.964 99.6491 111.264 100.983" stroke="#FFDEDE" stroke-miterlimit="10" stroke-linecap="round"/>
<path d="M98.3824 120.208C98.3824 120.208 88.6772 129.817 89.8746 141.093" stroke="#FFDEDE" stroke-miterlimit="10" stroke-linecap="round"/>
<path d="M100.986 122.3C100.986 122.3 96.4914 134.522 97.9097 142.277" stroke="#FFDEDE" stroke-miterlimit="10" stroke-linecap="round"/>
<path d="M105.22 134.515C105.22 134.515 82.835 140.523 81.1397 141.124C79.4444 141.725 79.6902 145.578 79.6902 146.417C79.6902 147.257 74.7305 172.514 74.7305 172.514C73.1432 173.508 71.6442 174.636 70.2497 175.884C68.3149 177.688 69.0397 180.093 69.0397 180.695C69.0397 181.296 69.1594 181.534 68.5544 182.135C67.9494 182.737 66.6196 181.659 66.8654 185.386C67.1112 189.114 65.7752 197.915 69.1594 198.372C72.5436 198.829 74.2452 198.497 79.205 196.812C82.1255 195.845 84.5818 193.836 86.0995 191.174V205.369H146.839C146.839 205.369 153.009 187.447 153.375 175.664C153.74 163.882 155.309 146.555 153.135 143.31C150.961 140.065 139.46 136.457 129.294 135.254C119.129 134.052 107.035 134.033 105.22 134.515Z" fill="#4C6ED7"/>
<g style="mix-blend-mode:multiply" opacity="0.24">
<path d="M150.822 141.343C151.137 141.713 151.27 142.026 150.999 142.151C150.167 142.546 146.26 143.799 145.787 145.446C145.314 147.094 145.51 140.435 144.602 142.383C143.695 144.331 142.466 152.042 137.493 167.59C133.517 179.999 131.361 195.86 132.704 205.35H146.839C146.839 205.35 153.009 187.428 153.375 175.646C153.74 163.863 155.309 146.536 153.135 143.291C152.505 142.493 151.718 141.83 150.822 141.343Z" fill="black"/>
</g>
<path d="M106.064 131.145C105.217 131.713 104.547 132.505 104.13 133.432C103.285 135.11 96.1449 148.221 95.5399 148.823C94.9349 149.424 98.8044 149.305 100.38 148.585C101.956 147.864 104.854 147.864 104.854 147.864L107.64 150.025L116.23 153.395C116.23 153.395 120.099 150.627 122.034 149.067C123.969 147.507 124.82 146.899 124.82 146.899C126.5 147.465 128.121 148.19 129.66 149.067C131.594 150.27 130.87 150.871 131.594 150.27C132.319 149.668 131.96 148.466 130.964 146.78C129.968 145.095 126.975 135.837 123.219 132.373C119.463 128.909 110.539 127.775 106.064 131.145Z" fill="#4C6ED7" stroke="#263238" stroke-linecap="round" stroke-linejoin="round"/>
<path d="M123.61 161.094L140.31 161.213L139.945 165.905L131.355 170.233L123.61 166.024V161.094Z" fill="#4C6ED7" stroke="#263238" stroke-linecap="round" stroke-linejoin="round"/>
<path d="M86.0994 159.647L102.8 159.766L102.434 164.458L93.8447 168.786L86.0994 164.577V159.647Z" fill="#4C6ED7" stroke="#263238" stroke-linecap="round" stroke-linejoin="round"/>
<g style="mix-blend-mode:multiply" opacity="0.24">
<path d="M86.3012 195.622C86.3012 195.622 85.3559 160.054 86.0681 156.045C86.7802 152.036 81.8015 140.028 82.0347 146.392C82.2679 152.756 83.9253 162.347 84.064 164.733C84.2026 167.12 78.4803 165.942 78.953 169.006C79.4256 172.069 82.7342 172.063 83.6985 176.779C84.6627 181.496 76.5834 181.252 76.5834 183.845C76.5834 186.439 79.4319 189.965 77.0623 192.089C74.6927 194.213 73.3567 191.369 73.3567 191.369C74.2 193.603 74.3622 196.034 73.823 198.359C75.6577 197.984 77.4627 197.477 79.224 196.843C82.1444 195.876 84.6008 193.868 86.1185 191.206V196.317L86.3012 195.622Z" fill="black"/>
</g>
<path d="M105.205 134.562C105.205 134.562 82.8203 140.57 81.1251 141.171C79.4298 141.772 79.6756 145.625 79.6756 146.464C79.6756 147.304 74.7158 172.561 74.7158 172.561C73.1285 173.555 71.6295 174.683 70.235 175.931C68.3003 177.735 69.025 180.14 69.025 180.742C69.025 181.343 69.1448 181.581 68.5398 182.182C67.9347 182.784 66.605 181.706 66.8508 185.433C67.0966 189.161 65.7605 197.962 69.1447 198.419C72.529 198.876 74.2306 198.544 79.1903 196.859C82.1108 195.892 84.5671 193.884 86.0848 191.222V205.416H146.825C146.825 205.416 152.994 187.494 153.36 175.712C153.725 163.929 155.295 146.602 153.12 143.357C150.946 140.112 139.445 136.504 129.28 135.302C119.114 134.099 107.02 134.08 105.205 134.562Z" stroke="#263238" stroke-linecap="round" stroke-linejoin="round"/>
<path d="M86.1003 170.59V191.4C86.1003 191.4 85.0099 178.17 82.1104 174.8" stroke="#263238" stroke-linecap="round" stroke-linejoin="round"/>
<path d="M69.7708 181.809C69.7708 181.809 76.1863 184.096 77.516 188.781C78.8458 193.467 77.2766 196.48 77.2766 196.48" stroke="#263238" stroke-linecap="round" stroke-linejoin="round"/>
<path d="M62.0946 189.696C62.0946 189.696 66.7771 187.579 67.1363 187.19C67.4955 186.802 71.6171 186.996 73.3376 191.356C75.0581 195.716 73.8103 197.808 72.9532 198.278C72.0961 198.748 67.6027 200.051 66.3612 200.051C65.1196 200.051 59.9015 191.312 62.0946 189.696Z" fill="#4C6ED7" stroke="#263238" stroke-linecap="round" stroke-linejoin="round"/>
<path d="M106.789 133.313C106.789 133.313 104.735 205.181 105.579 205.181H120.345C120.345 205.181 120.465 152.794 121.429 147.864C122.393 142.934 124.7 134.152 124.334 131.747C123.969 129.341 107.52 130.663 107.52 130.663C107.15 131.507 106.904 132.399 106.789 133.313Z" fill="#FFDEDE"/>
<path d="M106.789 133.313C106.789 133.313 104.735 205.181 105.579 205.181H120.345C120.345 205.181 120.465 152.794 121.429 147.864C122.393 142.934 124.7 134.152 124.334 131.747C123.969 129.341 107.52 130.663 107.52 130.663C107.15 131.507 106.904 132.399 106.789 133.313Z" fill="#4C6ED7"/>
<path opacity="0.7" d="M106.789 133.313C106.789 133.313 104.735 205.181 105.579 205.181H120.345C120.345 205.181 120.465 152.794 121.429 147.864C122.393 142.934 124.7 134.152 124.334 131.747C123.969 129.341 107.52 130.663 107.52 130.663C107.15 131.507 106.904 132.399 106.789 133.313Z" fill="#FFDEDE"/>
<path d="M106.789 133.313C106.789 133.313 104.735 205.181 105.579 205.181H120.345C120.345 205.181 120.465 152.794 121.429 147.864C122.393 142.934 124.7 134.152 124.334 131.747C123.969 129.341 107.52 130.663 107.52 130.663C107.15 131.507 106.904 132.399 106.789 133.313Z" stroke="#263238" stroke-linecap="round" stroke-linejoin="round"/>
<path d="M121.341 148.459C116.497 150.007 111.318 150.195 106.374 149.004C105.819 170.49 104.987 205.181 105.579 205.181H120.345C120.345 205.181 120.459 156.083 121.341 148.459Z" fill="#FFFDFD"/>
<path d="M120.377 197.877C120.377 195.91 120.377 193.686 120.414 191.3H105.46C105.46 193.705 105.403 195.923 105.39 197.877H120.377Z" fill="#263238"/>
<path d="M105.693 178.771C105.649 181.026 105.605 183.225 105.567 185.349H120.478C120.478 183.2 120.515 180.995 120.541 178.771H105.693Z" fill="#263238"/>
<path d="M105.951 166.243C105.901 168.429 105.851 170.628 105.806 172.82H120.597C120.629 170.578 120.66 168.367 120.698 166.243H105.951Z" fill="#263238"/>
<path d="M106.254 153.715C106.203 155.826 106.147 158.031 106.09 160.292H120.818C120.875 157.83 120.944 155.6 121.02 153.715H106.254Z" fill="#263238"/>
<path d="M121.341 148.459C116.497 150.007 111.318 150.195 106.374 149.004C105.819 170.49 104.987 205.181 105.579 205.181H120.345C120.345 205.181 120.459 156.083 121.341 148.459Z" stroke="#263238" stroke-linecap="round" stroke-linejoin="round"/>
<path d="M113.81 102.255C113.81 102.255 111.629 109.108 102.195 115.247C102.195 115.247 101.565 123.785 104.13 130.155C106.695 136.526 113.444 141.581 116.35 140.98C119.255 140.379 124.939 133.883 126.874 129.316C128.809 124.749 128.815 116.569 128.815 116.569C128.815 116.569 119.009 110.217 113.81 102.255Z" fill="#FFDEDE" stroke="#263238" stroke-linecap="round" stroke-linejoin="round"/>
<path d="M113.085 125.495C113.085 125.495 112.839 129.46 113.444 129.823C114.05 130.187 115.14 130.061 115.26 128.74" stroke="#263238" stroke-linecap="round" stroke-linejoin="round"/>
<path d="M111.875 132.323C111.875 132.323 115.625 133.044 117.679 131.84" stroke="#263238" stroke-linecap="round" stroke-linejoin="round"/>
<path d="M111.8 113.624C111.8 113.624 106.72 112.278 104.54 116.036" stroke="#263238" stroke-linecap="round" stroke-linejoin="round"/>
<path d="M116.684 116.506C116.684 116.506 120.206 112.979 125.173 116.161" stroke="#263238" stroke-linecap="round" stroke-linejoin="round"/>
<path d="M105.945 121.16C105.945 121.16 108.245 123.328 111.995 121.787" stroke="#263238" stroke-linecap="round" stroke-linejoin="round"/>
<path d="M117.421 121.674C117.421 121.674 120.572 123.122 123.225 121.436" stroke="#263238" stroke-linecap="round" stroke-linejoin="round"/>
<path d="M108.321 127.174C111.126 127.174 113.4 124.913 113.4 122.125C113.4 119.336 111.126 117.076 108.321 117.076C105.515 117.076 103.241 119.336 103.241 122.125C103.241 124.913 105.515 127.174 108.321 127.174Z" stroke="#263238" stroke-width="0.75" stroke-linecap="round" stroke-linejoin="round"/>
<path d="M120.446 127.174C123.251 127.174 125.525 124.913 125.525 122.125C125.525 119.336 123.251 117.076 120.446 117.076C117.641 117.076 115.366 119.336 115.366 122.125C115.366 124.913 117.641 127.174 120.446 127.174Z" stroke="#263238" stroke-width="0.75" stroke-linecap="round" stroke-linejoin="round"/>
<path d="M113.4 122.125H115.361" stroke="#263238" stroke-width="0.75" stroke-linecap="round" stroke-linejoin="round"/>
<path d="M125.526 122.125H128.501" stroke="#263238" stroke-width="0.75" stroke-linecap="round" stroke-linejoin="round"/>
<path d="M101.88 122.125H103.229" stroke="#263238" stroke-width="0.75" stroke-linecap="round" stroke-linejoin="round"/>
<path d="M110.231 122.438C110.231 122.438 111.523 122.495 110.313 122.94C109.103 123.385 107.88 123.165 106.625 122.106C106.625 122.106 109.027 122.419 110.231 122.438Z" fill="#263238" stroke="#263238" stroke-linecap="round" stroke-linejoin="round"/>
<path d="M118.99 122.137C118.99 122.137 117.73 122.025 118.845 122.62C119.961 123.216 121.228 123.165 122.627 122.269C122.608 122.3 120.188 122.3 118.99 122.137Z" fill="#263238" stroke="#263238" stroke-linecap="round" stroke-linejoin="round"/>
<path d="M138.13 163.976L136.195 144.131C136.195 144.131 132.08 143.291 130.63 142.327C129.181 141.362 127.479 140.166 127.479 140.166C127.479 140.166 126.515 141.005 125.79 140.166C125.066 139.326 122.765 137.66 122.4 136.313C122.034 134.966 124.58 133.181 126.149 131.026C127.719 128.871 129.42 126.817 130.63 126.936C131.84 127.055 137.04 132.323 139.724 136.438C142.409 140.554 143.474 141.606 143.594 143.053C143.713 144.5 146.115 151.823 146.115 151.823L146.745 164.214L138.13 163.976Z" fill="#FFDEDE" stroke="#263238" stroke-linecap="round" stroke-linejoin="round"/>
<path d="M127.48 140.166C127.48 140.166 125.097 137.829 125.097 137.127" stroke="#263238" stroke-linecap="round" stroke-linejoin="round"/>
<path d="M134.015 152.493L136.315 165.241L138.836 151.046L148.635 149.969C148.635 149.969 148.547 165.122 148.547 168.968C148.547 172.814 150.242 190.379 150.728 196.53C151.213 202.682 147.942 204.674 143.468 204.824C138.993 204.974 135.357 200.859 133.907 192.559C132.458 184.259 134.147 169.106 133.422 166.581C132.697 164.057 129.641 153.715 129.641 153.715L134.015 152.493Z" fill="#4C6ED7"/>
<g style="mix-blend-mode:multiply" opacity="0.24">
<path d="M145.005 204.674C148.654 204.135 151.137 201.911 150.715 196.53C150.23 190.398 148.534 172.839 148.534 168.968C148.534 165.097 148.654 149.969 148.654 149.969L147.066 150.144C146.152 153.17 141.06 170.929 143.65 183.607C146.499 197.507 148.868 198.917 145.075 204.573L145.005 204.674Z" fill="black"/>
</g>
<path d="M134.015 152.493L136.315 165.241L138.836 151.046L148.635 149.969C148.635 149.969 148.547 165.122 148.547 168.968C148.547 172.814 150.242 190.379 150.728 196.53C151.213 202.682 147.942 204.674 143.468 204.824C138.993 204.974 135.357 200.859 133.907 192.559C132.458 184.259 134.147 169.106 133.422 166.581C132.697 164.057 129.641 153.715 129.641 153.715L134.015 152.493Z" stroke="#263238" stroke-linecap="round" stroke-linejoin="round"/>
<path d="M57.0845 202.168C57.0845 202.168 56.7946 204.104 58.5592 204.542C60.3238 204.981 64.5651 203.884 64.918 202.982C65.023 202.735 65.0527 202.463 65.0034 202.199C64.9541 201.935 64.828 201.691 64.6407 201.498H60.7712C60.7712 201.498 57.8534 200.602 57.0845 202.168Z" fill="#FFDEDE" stroke="#263238" stroke-linecap="round" stroke-linejoin="round"/>
<path d="M39.76 181.296L55.7989 192.371L56.9963 190.786L40.8818 179.617L39.76 181.296Z" fill="#263238" stroke="#263238" stroke-linecap="round" stroke-linejoin="round"/>
<path d="M43.4846 183.864L44.7324 182.286L40.8818 179.617L39.76 181.296L43.4846 183.864Z" fill="#FFDEDE" stroke="#263238" stroke-linecap="round" stroke-linejoin="round"/>
<path d="M59.5991 201.999C62.1098 201.881 64.4989 200.89 66.3487 199.199C69.2225 196.418 69.4178 194.557 65.5357 190.561C61.6536 186.564 53.1647 191.243 52.8937 193.01C52.6227 194.776 59.5991 201.999 59.5991 201.999Z" fill="#FFDEDE" stroke="#263238" stroke-linecap="round" stroke-linejoin="round"/>
<path d="M68.189 194.776C68.189 194.776 67.0924 197.05 66.0526 197.908C65.0127 198.767 63.3616 198.998 62.3848 197.614C61.4079 196.23 60.4059 191.932 59.5551 191.845C58.7043 191.757 54.463 190.373 53.253 188.713C52.043 187.053 52.106 185.768 54.7718 186.558C57.4376 187.347 64.5716 188.268 64.5716 188.268C64.5716 188.268 66.2606 189.276 67.4327 192.816" fill="#FFDEDE"/>
<path d="M68.189 194.776C68.189 194.776 67.0924 197.05 66.0526 197.908C65.0127 198.767 63.3616 198.998 62.3848 197.614C61.4079 196.23 60.4059 191.932 59.5551 191.845C58.7043 191.757 54.463 190.373 53.253 188.713C52.043 187.053 52.106 185.768 54.7718 186.558C57.4376 187.347 64.5716 188.268 64.5716 188.268C64.5716 188.268 66.2606 189.276 67.4327 192.816" stroke="#263238" stroke-linecap="round" stroke-linejoin="round"/>
<path d="M54.4694 200.101C54.8475 200.564 56.089 202.663 56.6751 202.807C57.2612 202.951 60.8597 200.677 62.2462 198.942C63.6326 197.207 61.0488 194.801 60.3114 194.463C59.5741 194.125 54.4694 200.101 54.4694 200.101Z" fill="#FFDEDE" stroke="#263238" stroke-linecap="round" stroke-linejoin="round"/>
<path d="M52.6353 193.837C52.6353 193.837 49.4842 195.716 50.2342 197.006C50.9841 198.297 53.505 200.257 54.3116 199.913C55.1183 199.568 60.5507 197.056 60.5255 195.685C60.5003 194.313 60.4121 192.678 57.6329 192.903C55.9393 193.044 54.2648 193.357 52.6353 193.837Z" fill="#FFDEDE" stroke="#263238" stroke-linecap="round" stroke-linejoin="round"/>
<path d="M49.4842 188.631C49.4842 188.631 47.9528 191.726 49.3582 193.066C50.7635 194.407 59.4416 194.375 59.8827 192.797C60.3239 191.218 57.072 190.88 54.6835 189.859C52.295 188.838 49.8182 187.898 49.4842 188.631Z" fill="#FFDEDE" stroke="#263238" stroke-linecap="round" stroke-linejoin="round"/>
<path d="M83.1375 204.749C83.1375 204.749 82.898 200.658 79.268 199.218C75.638 197.777 73.6969 198.372 65.5924 200.539C60.4849 201.867 55.2543 202.673 49.9821 202.945V204.749H83.1375Z" fill="#BCBBBB" stroke="#263238" stroke-linecap="round" stroke-linejoin="round"/>
<path d="M83.0051 204.749C83.0051 204.749 83.2446 200.658 86.8746 199.218C90.5046 197.777 92.4394 198.372 100.55 200.539C105.656 201.867 110.884 202.673 116.154 202.945V204.749H83.0051Z" fill="#BCBBBB" stroke="#263238" stroke-linecap="round" stroke-linejoin="round"/>
<path d="M117.503 204.028H49.1376V205.35H117.503V204.028Z" fill="#263238" stroke="#263238" stroke-linecap="round" stroke-linejoin="round"/>
<path d="M9.27051 205.35H229" stroke="#263238" stroke-linecap="round" stroke-linejoin="round"/>
<path d="M226.479 169.031H179.894L164.044 205.469H210.629L226.479 169.031Z" fill="#FFDEDE" stroke="#263238" stroke-linecap="round" stroke-linejoin="round"/>
<path d="M228.294 169.031H181.709L165.859 205.469H212.444L228.294 169.031Z" fill="#263238" stroke="#263238" stroke-linecap="round" stroke-linejoin="round"/>
<path d="M200.804 191.206C199.607 193.085 197.363 193.824 195.794 192.834C194.225 191.845 193.903 189.521 195.113 187.635C196.324 185.75 198.554 185.023 200.155 186.006C201.756 186.99 202.002 189.326 200.804 191.206Z" fill="white" stroke="#4C6ED7" stroke-linecap="round" stroke-linejoin="round"/>
<path d="M164.649 204.029H130.649V205.35H164.649V204.029Z" fill="#FFDEDE" stroke="#263238" stroke-linecap="round" stroke-linejoin="round"/>
</svg>
