<svg width="25" height="24" viewBox="0 0 25 24" fill="none" xmlns="http://www.w3.org/2000/svg">
<path d="M5.5 16H19.5V19C19.5 20.1046 18.6046 21 17.5 21H7.5C6.39543 21 5.5 20.1046 5.5 19V16Z" stroke="#6C6C6C" stroke-width="2" stroke-linejoin="round"/>
<path d="M4.5 7H20.5V14C20.5 15.1046 19.6046 16 18.5 16H6.5C5.39543 16 4.5 15.1046 4.5 14V7Z" stroke="#6C6C6C" stroke-width="2" stroke-linejoin="round"/>
<rect x="12.5" y="12" width="0.01" height="0.01" stroke="#6C6C6C" stroke-width="3" stroke-linejoin="round"/>
<path d="M9.5 5C9.5 3.89543 10.3954 3 11.5 3H13.5C14.6046 3 15.5 3.89543 15.5 5V7H9.5V5Z" stroke="#6C6C6C" stroke-width="2" stroke-linejoin="round"/>
</svg>
