<svg width="32" height="33" viewBox="0 0 32 33" fill="none" xmlns="http://www.w3.org/2000/svg">
<g clip-path="url(#clip0_818_868)">
<path d="M15.619 20.7242C17.9194 20.7242 19.7841 18.8594 19.7841 16.5591C19.7841 14.2588 17.9194 12.394 15.619 12.394C13.3187 12.394 11.454 14.2588 11.454 16.5591C11.454 18.8594 13.3187 20.7242 15.619 20.7242Z" fill="#0A0822"/>
<path d="M11.7143 3.54297L9.33239 6.14614H5.20635C3.77461 6.14614 2.60318 7.31757 2.60318 8.74932V24.3684C2.60318 25.8001 3.77461 26.9715 5.20635 26.9715H26.0318C27.4635 26.9715 28.6349 25.8001 28.6349 24.3684V8.74932C28.6349 7.31757 27.4635 6.14614 26.0318 6.14614H21.9057L19.5238 3.54297H11.7143ZM15.6191 23.0668C12.0267 23.0668 9.11112 20.1512 9.11112 16.5588C9.11112 12.9665 12.0267 10.0509 15.6191 10.0509C19.2114 10.0509 22.127 12.9665 22.127 16.5588C22.127 20.1512 19.2114 23.0668 15.6191 23.0668Z" fill="#0A0822"/>
</g>
<defs>
<clipPath id="clip0_818_868">
<rect width="31.2381" height="31.2381" fill="white" transform="translate(0 0.939941)"/>
</clipPath>
</defs>
</svg>
