<svg width="21" height="20" viewBox="0 0 21 20" fill="none" xmlns="http://www.w3.org/2000/svg">
<path d="M16.4679 4.29821C17.3259 4.93726 17.9218 5.38204 18.3634 5.76974C18.7939 6.1477 19.0211 6.4241 19.1676 6.69941C19.4732 7.27355 19.5 7.93274 19.5 9.95116V11.4425C19.5 13.4924 19.4971 14.9126 19.3291 15.9823C19.1683 17.0052 18.876 17.5672 18.3854 17.987C17.8722 18.4261 17.1482 18.7031 15.8721 18.8499C14.581 18.9984 12.8813 19 10.5 19C8.1187 19 6.41896 18.9984 5.12794 18.8499C3.85176 18.7031 3.12775 18.4261 2.61465 17.987C2.12402 17.5672 1.83166 17.0052 1.67094 15.9823C1.50288 14.9126 1.5 13.4924 1.5 11.4425L1.5 9.95116C1.5 7.93274 1.52685 7.27355 1.83235 6.69941C1.97885 6.4241 2.2061 6.1477 2.63659 5.76974C3.07818 5.38204 3.67409 4.93726 4.53209 4.29821C6.11608 3.11843 7.23442 2.28755 8.18662 1.74156C9.11292 1.21043 9.79825 1 10.5 1C11.2017 1 11.8871 1.21043 12.8134 1.74156C13.7656 2.28755 14.8839 3.11843 16.4679 4.29821Z" stroke="#6C6C6C" stroke-width="2"/>
</svg>
